<svg xmlns="http://www.w3.org/2000/svg" xmlns:xlink="http://www.w3.org/1999/xlink" viewBox="0 0 338.79 223.89">
  <defs>
    <style>
      .cls-1 {
        fill: none;
      }

      .cls-2 {
        fill: #82152e;
        stroke: #6b112d;
        stroke-miterlimit: 10;
        stroke-width: 9px;
      }

      .cls-3 {
        clip-path: url(#clip-path);
      }

      .cls-4 {
        fill: #83092b;
      }

      .cls-4, .cls-5 {
        fill-rule: evenodd;
      }

      .cls-5, .cls-6 {
        fill: #fff;
      }
    </style>
    <clipPath id="clip-path">
      <rect class="cls-1" x="141.53" y="24.49" width="169.17" height="50.75"/>
    </clipPath>
  </defs>
  <g id="Livello_2" data-name="Livello 2">
    <g id="Livello_1-2" data-name="Livello 1">
      <rect class="cls-2" x="4.5" y="4.5" width="329.79" height="214.89" rx="13.6"/>
      <g class="cls-3">
        <path class="cls-4" d="M183.83,49.87c0,14-9.49,25.37-21.15,25.37s-21.15-11.37-21.15-25.37S151,24.49,162.68,24.49s21.15,11.39,21.15,25.38"/>
        <path class="cls-5" d="M163.08,32.62c0,.79,0,2.84,0,3.58a1,1,0,0,0,.28.74,1.36,1.36,0,0,0,.25.2.48.48,0,0,0,.2.07l.26,0a1.06,1.06,0,0,0,.73-.36l1.95-2.09c.13-.14,0-.16-.12-.16a4.74,4.74,0,0,0-2.51,1.47c-.08-.88-.22-2.85-.87-3.59-.08-.09-.17-.08-.17.12m-.83-.12c-.65.74-.77,2.71-.84,3.59a4.8,4.8,0,0,0-2.52-1.47c-.11,0-.25,0-.12.16l1.95,2.09a1,1,0,0,0,.71.35,1.16,1.16,0,0,0,.28,0,.48.48,0,0,0,.2-.07,1.13,1.13,0,0,0,.53-.94V32.62c0-.2-.11-.21-.19-.12m-7.61,18.33a1.28,1.28,0,0,0-1-1.38l-.26,0a21.62,21.62,0,0,1-8.06-2.4c-.06,0-.11,0-.08.09a4.47,4.47,0,0,0,1.3,1.14,18.07,18.07,0,0,0,5.57,2.25,18.63,18.63,0,0,0,2.57.33m2.09,3.2a1.87,1.87,0,0,0-.14-.87,1,1,0,0,0-.4-.57,1.87,1.87,0,0,0-1.05-.42,15.64,15.64,0,0,1-8.12-2.9c-.12-.09-.17,0-.07.09a9.15,9.15,0,0,0,1.41,1.51,12.58,12.58,0,0,0,5.6,2.44c.43.08.86.13,1.29.17.1,0,.16,0,.18,0a.31.31,0,0,1,0,.19c0,.42-.06.84-.06,1.27a12.12,12.12,0,0,0,1.46,5.83,8.38,8.38,0,0,0,1.28,1.62c.1.12.16.08.1-.05A14.78,14.78,0,0,1,156.73,54m2.43,2.22a2.11,2.11,0,0,0,0-.25A1.28,1.28,0,0,0,158,54.76h0a17.72,17.72,0,0,0-.12,2.53,17,17,0,0,0,1.31,5.76,4.46,4.46,0,0,0,.91,1.46c.06,0,.13,0,.11-.06a20.63,20.63,0,0,1-1-8.2m2.73.66,0-.32a3.44,3.44,0,0,0-.83-2.76c-1-1.2-2.8-1.29-3.49-2s-.42-2.68-1.48-3.79a3.85,3.85,0,0,0-2.66-1.16h-.29a23.39,23.39,0,0,1-8.64-1.75c-.1,0-.22,0-.14.16a4.41,4.41,0,0,0,1.79,1.27,27,27,0,0,0,7.22,1.59c1.77.09,2.54,1.65,2.94,3a3.38,3.38,0,0,0,.59,1.17,3.31,3.31,0,0,0,1.08.83c1.29.63,2.85,1.61,2.62,3.33a23.27,23.27,0,0,0,.2,7.23,4.12,4.12,0,0,0,.91,2,.11.11,0,0,0,.19-.1,21.48,21.48,0,0,1-.05-8.6m-8.33-12.22a14.61,14.61,0,0,0-1.87.56.14.14,0,0,0,0,.25,5.47,5.47,0,0,0,2.64.24c.71-.28.55-1.45.18-1.94a15.22,15.22,0,0,1-2.68-8c0-.15-.07-.15-.11,0a9.16,9.16,0,0,0-.33,2,12.48,12.48,0,0,0,2.16,6.9M154,40.4a17.61,17.61,0,0,0,1.31,2.17,1.28,1.28,0,0,0,.45-1.65l-.14-.21a21,21,0,0,1-3-7.67.06.06,0,0,0-.12,0,4.25,4.25,0,0,0-.1,1.71A17.72,17.72,0,0,0,154,40.4m2.7-.47c1,1.4.26,3-.55,4.12-1,1.41.22,3.19.16,2.15-.08-1.53,1.86-2.44,2.12-4.25a3.67,3.67,0,0,0-.71-2.76l-.16-.23a22.28,22.28,0,0,1-3.9-7.71.11.11,0,0,0-.21,0,4.3,4.3,0,0,0,.1,2.16,25.88,25.88,0,0,0,3.15,6.52M171,43.8c-.37.49-.53,1.66.18,1.94a5.47,5.47,0,0,0,2.64-.24.14.14,0,0,0,0-.25,14.06,14.06,0,0,0-1.86-.56,12.48,12.48,0,0,0,2.16-6.9,9.16,9.16,0,0,0-.33-2c0-.15-.1-.15-.11,0a15.14,15.14,0,0,1-2.68,8m-1.19-2.88a1.27,1.27,0,0,0,.43,1.64,14.91,14.91,0,0,0,1.33-2.16,17.46,17.46,0,0,0,1.63-5.66,4.25,4.25,0,0,0-.1-1.71c0-.06-.1-.06-.11,0a21.17,21.17,0,0,1-3,7.67Zm-.56,5.28c-.06,1,1.17-.74.17-2.15-.81-1.15-1.56-2.72-.55-4.12A26,26,0,0,0,172,33.41a4.11,4.11,0,0,0,.11-2.16.11.11,0,0,0-.21,0A22.46,22.46,0,0,1,168,39l-.17.23a3.66,3.66,0,0,0-.7,2.76c.26,1.81,2.2,2.72,2.11,4.25m-6.58,27.39C151.83,73.59,143,63,143,49.87s8.82-23.72,19.67-23.72,19.66,10.64,19.66,23.72-8.82,23.72-19.66,23.72m0-48.17c-11.24,0-20.37,11-20.37,24.45s9.13,24.44,20.37,24.44,20.37-11,20.37-24.44-9.14-24.45-20.37-24.45m-3.92,24.29a1.33,1.33,0,0,1-1-.64A1.48,1.48,0,0,0,159.07,51a4.31,4.31,0,0,1-.31-1.21Zm0-.93c0-.37,0-.83,0-1.18a2.36,2.36,0,0,1-1.52-.91c-.52.84.08,1.9,1.48,2.09m7.89,1a3.61,3.61,0,0,1-.31,1.2,1.45,1.45,0,0,0,1.32-1.93,1.26,1.26,0,0,1-1,.63Zm1.45-3.11a2.3,2.3,0,0,1-1.51.91c0,.35,0,.81,0,1.18,1.4-.2,2-1.25,1.47-2.09m-4.39-2.11c2.84,1.64,3.88.13,3.88.13s1,1.24-.75,1.72a3.81,3.81,0,0,1-3.46-.86c-.57-.42-.68-1.57.33-1m1.53-1.47a4.16,4.16,0,0,0,1.45.68s0,1.13-1.66.51c-.58-.22-2.32-1.2-2-1.61.49-.68,1.35-.13,2.23.42m-3.56,1.47c-2.84,1.64-3.84.13-3.84.13s-1.08,1.24.71,1.72a3.81,3.81,0,0,0,3.46-.86c.57-.42.68-1.57-.33-1m-1.53-1.47a4.31,4.31,0,0,1-1.41.68s0,1.13,1.62.51c.58-.22,2.31-1.2,2-1.61-.5-.68-1.35-.13-2.23.42M166,49.3c-.05-.48-.11-1.35-.13-1.82a4.32,4.32,0,0,1-3.14-1.66,4.37,4.37,0,0,1-3.15,1.66c0,.47-.09,1.34-.13,1.82a3.27,3.27,0,0,0,.81,2.47,3.42,3.42,0,0,0,1.1.86l.12,0,.2.09A2.77,2.77,0,0,1,162,53a1.41,1.41,0,0,0,1.51,0,2.77,2.77,0,0,1,.29-.22l.2-.09.12,0a3.42,3.42,0,0,0,1.1-.86A3.27,3.27,0,0,0,166,49.3m-1.71-.36c-.76,0-.92-.23-.92-.23a.94.94,0,0,1,.92-.63,1.1,1.1,0,0,1,1,.53c0,.08,0,.33-1,.33m-1.55,2.92a1.32,1.32,0,0,1-1.16-.69,6,6,0,0,1,2.32,0,1.32,1.32,0,0,1-1.16.69m-1.58-2.92c-1,0-1-.25-1-.33a1.11,1.11,0,0,1,1-.53,1,1,0,0,1,.92.63s-.16.23-.93.23m1.58,1c.33,0,.6.14.6.25s-.27.25-.6.25-.6-.14-.6-.25.27-.25.6-.25m10.72.58A18.07,18.07,0,0,0,179,48.25a4.47,4.47,0,0,0,1.3-1.14c0-.06,0-.12-.08-.09a21.62,21.62,0,0,1-8.06,2.4l-.26,0a1.28,1.28,0,0,0-1,1.38,18.63,18.63,0,0,0,2.57-.33m-6.12,11.87c-.07.13,0,.17.09.05a8.38,8.38,0,0,0,1.28-1.62A12,12,0,0,0,170.17,55c0-.43,0-.85-.06-1.27a.43.43,0,0,1,0-.19s.08,0,.18,0c.43,0,.86-.09,1.29-.17a12.58,12.58,0,0,0,5.6-2.44,8.74,8.74,0,0,0,1.41-1.51c.1-.12,0-.18-.07-.09a15.64,15.64,0,0,1-8.12,2.9,1.87,1.87,0,0,0-1,.42,1,1,0,0,0-.4.57,1.87,1.87,0,0,0-.14.87,14.85,14.85,0,0,1-1.46,8.34m-2,2.08c0,.06,0,.1.1.06a4.44,4.44,0,0,0,.92-1.46,17.44,17.44,0,0,0,1.31-5.76,17.72,17.72,0,0,0-.13-2.53h0A1.28,1.28,0,0,0,166.35,56c0,.08,0,.17,0,.25a20.8,20.8,0,0,1-1,8.2m-1.76,1.06a.11.11,0,0,0,.19.1,4.12,4.12,0,0,0,.91-2,23.27,23.27,0,0,0,.2-7.23c-.23-1.72,1.33-2.7,2.62-3.33a3.47,3.47,0,0,0,1.09-.83,3.55,3.55,0,0,0,.58-1.17c.4-1.36,1.18-2.92,2.94-3a27,27,0,0,0,7.22-1.59,4.41,4.41,0,0,0,1.79-1.27.1.1,0,0,0-.13-.16,23.48,23.48,0,0,1-8.65,1.75h-.29A3.85,3.85,0,0,0,169.4,48c-1.05,1.11-.79,3-1.47,3.79s-2.45.85-3.5,2a3.44,3.44,0,0,0-.83,2.76l.05.32a21.66,21.66,0,0,1-.06,8.6M175.78,64s-.08,0-.12,0a.83.83,0,0,1-.35,0l-1.48-.16a1.2,1.2,0,0,0-.29-1.24.89.89,0,0,0-1.29.21c-.15.17-.28.36-.42.54l-.35.36a.84.84,0,0,0-.18.15.13.13,0,0,0,0,.2c.08.07.14,0,.23-.07s.17-.13.3,0L174.08,66l.34-.51-1-.94.05,0a1.07,1.07,0,0,0,.13-.19l1.14.12c.37,0,.66.14.95-.2.08-.09.15-.25.12-.28m-2.58-.87a.76.76,0,0,1,.11,1.19,1.13,1.13,0,0,1-.11.11l-1.06-1s-.06-.07,0-.13l.12-.14c.35-.41.63-.33.94-.05m-27-5.57a2,2,0,0,1,0-1l.35,0a1.65,1.65,0,0,0-.05.92c.15.44.46.68.83.55.19-.07.24-.28.29-.51a4.72,4.72,0,0,1,.21-1.07,1,1,0,0,1,.64-.65c.52-.18,1,.22,1.21.81a4.51,4.51,0,0,1,.16.79c-.23.1-.41.16-.55.21s-.15,0-.18-.07,0-.13.22-.27.18-.24.06-.59-.38-.62-.74-.49-.28.68-.3.91a2.26,2.26,0,0,1-.18.79,1,1,0,0,1-.58.51,1.07,1.07,0,0,1-1.35-.82m5,3.18H151l-.06-.24-.46-1-2.81,1.43-.32-.52L150.25,59c-.12-.28-.36-.77-.36-.77-.14-.29-.18-.18-.38-.12s-.18,0-.22,0,0-.15.09-.19l.39-.19c.16-.08.22,0,.27.13l.21.48c.27.62.57,1.23.86,1.84.06.11.14.21.2.31s.05,0,.06.08a.14.14,0,0,1-.15.19m2.14,3.09a.24.24,0,0,0-.24,0l-3.16.89-.28-.3c.68-1.23,1.12-2,1.7-3,.05-.08.09-.12,0-.2s-.09-.2,0-.25a.13.13,0,0,1,.2.06c.07.13.22.34.29.45a.3.3,0,0,1,0,.36l-1.46,2.44,2.58-.74c.16,0-.16-.36,0-.46s.13,0,.19.07.16.26.23.35.14.17.23.28.07.17,0,.22-.09,0-.22-.11m2.22,3.85a1.79,1.79,0,0,0-.44-2.56l-.47-.36-.3-.23a1.92,1.92,0,0,1-.29-.27c-.05,0-.1-.12-.16-.17a.15.15,0,0,0-.21,0c-.06.08,0,.14.1.22s.13.17,0,.31L152,67.08a4,4,0,0,1,.68.54l.26.26a1.75,1.75,0,0,0,2.68-.25m-.55-.34c-.54.72-1.22,1-1.95.42a2.05,2.05,0,0,1-.42-.41c-.06-.08,0-.09,0-.2l1.63-2.16c.07-.1.12-.1.2,0l.35.29c.92.73.64,1.45.16,2.09m2.52-.28c-.08,0-.1.07-.13.13l-1.34,2.73-.55-.23,1.36-2.77c.09-.18.08-.15-.06-.25s-.17-.1-.12-.19.12-.1.21,0l.43.25c.1.06.28.13.41.19s.14.11.1.2-.12,0-.31,0m4,1.06a.32.32,0,0,0-.21.14l-2,2.8L159,71c-.21-1.39-.36-2.26-.51-3.42,0-.09,0-.15-.09-.18s-.19-.09-.18-.16a.13.13,0,0,1,.19-.09l.5.16c.15.06.17.18.19.31l.35,2.81L161,68.13c.09-.14-.35-.17-.31-.33s.09-.1.19-.07a5.71,5.71,0,0,0,.82.09c.11,0,.16,0,.15.14s-.08.09-.27.11m4.67-.65c-.2.09-.21.15-.14.42s.77,2.92.77,2.92l-.62.16-.68-2.66-.69,2.66-.29.09L163,68.69l.18,2.65-.55.16-.19-3c0-.31-.07-.38-.25-.4s-.22,0-.23-.14.09-.14.14-.14.54,0,.67,0a.26.26,0,0,1,.26.14l1.61,2.46.73-2.81a.31.31,0,0,1,.23-.23l.59-.2s.19,0,.21.1,0,.1-.18.17m5-3a.65.65,0,0,0,0,.41l.69,3.16-.31.28c-1.13-.79-1.89-1.22-2.82-1.89-.07-.05-.1-.1-.19-.05s-.19.08-.23,0a.13.13,0,0,1,.06-.2l.45-.27c.14-.08.24,0,.36.07l2.27,1.59-.6-2.67c0-.17-.36.14-.45,0s0-.13.08-.19a3.75,3.75,0,0,0,.61-.59.13.13,0,0,1,.22,0s0,.16-.11.32m5.59-3.93a.91.91,0,0,0-1.24.23.87.87,0,0,0-.43-.86.91.91,0,0,0-1.21.46c-.11.16-.18.34-.29.51s-.19.29-.25.37a1.19,1.19,0,0,0-.15.18.16.16,0,0,0,0,.22c.06,0,.09,0,.19-.13s.15-.15.3-.06l.12.08,2.48,1.6s.21-.41.26-.49.21-.24.32-.42a1.22,1.22,0,0,0-.14-1.69m-1.89,0a.56.56,0,0,1,.2.88l-.1.18-1-.63c-.08,0-.11-.07-.06-.13l0-.09a.6.6,0,0,1,.9-.21m1.62.59a.68.68,0,0,1,.26,1,2.16,2.16,0,0,1-.32.4s0,0-.06,0l-1.19-.77.09-.16c.39-.63.82-.7,1.22-.44m-1.2-2.92c0,.08.06.1.13.13l2.73,1.31-.21.58-2.77-1.34c-.18-.09-.14-.08-.25.08s-.08.17-.17.12-.1-.11,0-.21.18-.34.23-.45.12-.3.17-.43.11-.15.2-.11,0,.12,0,.32m3.74-.7a1.87,1.87,0,0,1-.59.86l-.26-.24a1.58,1.58,0,0,0,.58-.71c.14-.44,0-.82-.35-.94-.18-.07-.36.07-.52.23a5.36,5.36,0,0,1-.79.72,1,1,0,0,1-.89.12,1.06,1.06,0,0,1-.5-1.4,4.23,4.23,0,0,1,.33-.73,5,5,0,0,1,.56.17c.08,0,.15.06.11.17s-.06.12-.34.08c-.11,0-.28.08-.39.43s-.05.74.3.85.63-.37.78-.53a2,2,0,0,1,.6-.52.93.93,0,0,1,.77-.05,1.12,1.12,0,0,1,.6,1.49"/>
        <path class="cls-6" d="M213.41,48.51c0,3.76-3.47,6-7.17,6a12.4,12.4,0,0,1-5.87-1.55l.42-.86a11.35,11.35,0,0,0,5.45,1.76c2.92,0,5.67-1.68,5.67-4.67,0-1.93-1.46-2.72-3.33-3.52-1.52-.64-3.23-1.42-4.8-2.18a5,5,0,0,1-3.14-4.92c0-2.77,1.79-5.81,6.88-5.81a28.39,28.39,0,0,1,4.59.53c.06,1.17.08,2.37.08,3.29,0,.39,0,.45-.21.45s-.26-.06-.5-1.49c-.21-1.17-1.76-2.12-4.17-2.12S202,34.94,202,37.78c0,5.2,11.41,3.56,11.41,10.73m11.32-2H219l3-6.93Zm5.18,7.5L223,37.27a.33.33,0,0,0-.31-.21h-2l.33.69a1.11,1.11,0,0,1,.06,1.11l-6.62,15.33,1.44-.21,2.75-6.73h6.38l2.83,7Zm12.78-12.31c0,3.08-2.28,5.2-5.75,5.2-.75,0-1.75-.54-1.75-.84,0-.06.1-.24.18-.24a5,5,0,0,0,1.42.36c2.92,0,3.91-1.73,3.91-3.91,0-2.75-1.2-4.29-5.21-4.29-.72,0-.84.15-.84.92V54l-2,.23V39.28c0-1.18-.06-1.51-1.44-1.57-.54,0-.57-.24-.57-.39a.25.25,0,0,1,.29-.29,6.86,6.86,0,0,1,1,.14,14.51,14.51,0,0,0,2.11.15c1,0,2.62-.12,3.64-.12,2.29,0,5,1.64,5,4.47M250,37.42c0,.15-.24.39-1,.51-.6.09-.66.75-.66,1.31V54l-2,.19V39.24c0-.59-.1-1.22-.6-1.31-1-.18-1.15-.36-1.15-.51s.06-.27.36-.24c.72.06,1.87.12,2.44.12s1.54-.06,2.26-.12c.3,0,.36.06.36.24m11.63,7.89V46h-5.3v6.12c0,1,0,1.2.79,1.32a11.72,11.72,0,0,0,2,.15,21.1,21.1,0,0,0,2.87-.15c.41-.09.84.06,1-1s.42-1.19.57-1.19.18.06.18.36c0,.62,0,1.37-.06,2.15,0,.6-.15.63-.69.6-.79,0-2.14-.09-3.23-.12-.93,0-2.95-.06-3.73-.06l-1.66.11V39.28c0-1.2-.09-1.53-1.47-1.59-.54,0-.54-.21-.54-.36a.29.29,0,0,1,.3-.33,7.42,7.42,0,0,1,1,.15,12.82,12.82,0,0,0,2,.15c.78,0,3,0,4-.06l2.51-.09c.54,0,.66,0,.69.57,0,.78.06,1.56.06,2.18,0,.3,0,.36-.18.36s-.36-.06-.57-1.19-.61-1-1-1.08a5.9,5.9,0,0,0-1-.06H257c-.45,0-.63.12-.63.42v7h5.29Zm20.72-8c0,.15,0,.36-.58.39-1.38.06-1.44.39-1.44,1.59V54l-1.18.23-10.78-14.7h0V54l-.93.26V39.28c0-1.2-.06-1.53-1.45-1.59-.54,0-.54-.24-.54-.39s.09-.33.27-.3c1,.12,3,.18,3.7.24.07.09.16.18.24.3l9.73,13.51V39.28c0-1.2-.06-1.53-1.44-1.59-.54,0-.57-.24-.57-.39a.27.27,0,0,1,.3-.3c.42,0,1.8.24,2.32.24s1.68-.24,2.07-.24a.28.28,0,0,1,.31.3m.78,16.42c-.16,0-.22,0-.22-.17s0-.19.09-.27l10.35-15.17h-8a2.85,2.85,0,0,0-1.63.63.16.16,0,0,1-.12-.21l.25-1.14c0-.15.09-.27.21-.27a8,8,0,0,0,2.34.18h9.17l.15.54-10,14.69c1.81,0,7.51.19,10,.44l6.07-14a1.08,1.08,0,0,0-.06-1.11l-.33-.69h2a.31.31,0,0,1,.3.21l6.9,16.7-2,.27-3.14-7.76-2.76-6.94-3,6.93L296.6,54c-2.66-.41-12-.83-13.45-.32M298.9,46.5H306v.77H298.9Z"/>
        <path class="cls-6" d="M267.65,66.84c-.32,0-1-.15-1.53-.12l-.73,0v-6c0-.45,0-.55-.51-.57-.24,0-.28-.06-.28-.16a.15.15,0,0,1,.17-.16,1.93,1.93,0,0,1,.42.06A6.06,6.06,0,0,0,266,60c.24,0,.47,0,.71,0l1.15,0a3.27,3.27,0,0,1,3.53,3.29,3.41,3.41,0,0,1-3.72,3.58m-.07-6.53h-.89c-.27,0-.39.11-.39.42V66c0,.37,0,.39.26.46a4,4,0,0,0,1.17.12c1.9,0,2.64-1.32,2.64-3.14,0-1.58-.44-3.09-2.79-3.09"/>
        <path class="cls-6" d="M274.55,60.31c-.22,0-.22.28-.22.47v5.91l-.91.07v-6c0-.2,0-.43-.19-.47-.38-.05-.5-.07-.5-.19s0-.16.2-.15.74.05,1,.05.61,0,.9-.05.2.05.2.15-.16.15-.45.19"/>
        <path class="cls-6" d="M285.38,66.91a1.11,1.11,0,0,1-.56,0,1.28,1.28,0,0,1-1-.63l-.52-.77-1.62-2.61a3,3,0,0,1-.81.07h-.32v3.65l-1,.13V59.24c0-.57,0-.69-.67-.73-.27,0-.33,0-.33-.14s.1-.18.2-.18.29,0,.53.07a8.58,8.58,0,0,0,1.1.09c.53,0,1.08-.08,1.62-.08a2,2,0,0,1,2.22,2,2.75,2.75,0,0,1-1.66,2.47l1.48,2.42a4.54,4.54,0,0,0,1.31,1.61c.08.06.1.13,0,.2Zm-4-8.32h-.52c-.21,0-.31.15-.31.4v3.66a2.57,2.57,0,0,0,.51,0,2,2,0,0,0,2.17-2.28c0-1.11-.44-1.82-1.85-1.82"/>
        <path class="cls-6" d="M289.69,66.84a3.41,3.41,0,0,1-3.55-3.47,3.5,3.5,0,0,1,3.55-3.47,3.47,3.47,0,1,1,0,6.94m0-6.61c-1.43,0-2.55,1.05-2.55,3.13,0,1.82.86,3.15,2.55,3.15s2.56-1.33,2.56-3.15c0-2.13-1.25-3.13-2.56-3.13"/>
        <path class="cls-6" d="M303,60.22c-.58,0-.57.25-.51.79s.68,5.66.68,5.66l-1,.1-.6-5.55-2.23,5.14-.42.08-2.52-5.24-.43,5.47-.86.11c.53-6.86.47-5.73.49-6,.05-.43,0-.54-.51-.56-.25,0-.29-.11-.29-.19s.1-.14.19-.13c.29,0,1,.06,1.21.08s.24.05.36.29l2.61,5.4,2.29-5.38a.44.44,0,0,1,.4-.31c.27,0,.92,0,1.2-.07.11,0,.24,0,.24.14s0,.16-.29.17"/>
        <path class="cls-6" d="M309.78,66.78,308.66,64H306.2l-1.07,2.63-.72.1,2.66-6.11a.4.4,0,0,0,0-.38l-.17-.36h.88a.2.2,0,0,1,.18.12l2.76,6.62Zm-2.3-5.73-1.09,2.63h2.09Z"/>
        <path class="cls-6" d="M207.7,58.62c-.28.05-.28.39-.29.61s-.06,3.08-.24,4.47c-.13,1-.56,3.18-3,3.18s-3.08-1.91-3.25-3.2c-.1-.69-.13-2.79-.13-3.88,0-.34,0-.57,0-.57,0-.26,0-.57-.24-.61-.55-.1-.62-.11-.62-.19s.08-.16.23-.14c.36,0,.85.05,1.14.05s.68,0,1-.05c.16,0,.24,0,.24.14s-.1.12-.54.19c-.26.05-.3.31-.29.61,0,0,0,2.74.1,4.09.13,2.1,1,3.19,2.35,3.19,1.63,0,2.38-1.34,2.5-3.09.1-1.39.1-2.65.1-3.93v-.26c0-.26,0-.57-.24-.61-.55-.1-.62-.11-.62-.19s.08-.16.24-.14c.35,0,.72.05,1,.05s.48,0,.84-.05c.15,0,.23,0,.23.14s-.1.12-.54.19"/>
        <path class="cls-6" d="M215.81,60.22c-.52,0-.52.12-.52.57v5.87l-.55.12-4.19-5.68v5.55l-.49.14v-6c0-.45,0-.55-.52-.57-.25,0-.27-.06-.27-.14s0-.19.18-.18c.4.05,1,.07,1.31.09l4,5.53V60.79c0-.45,0-.55-.51-.57-.24,0-.29,0-.29-.14a.16.16,0,0,1,.18-.18c.17,0,.72.09.92.09s.67-.09.83-.09a.16.16,0,0,1,.17.18c0,.09,0,.13-.28.14"/>
        <path class="cls-6" d="M219.1,60.31c-.21,0-.21.28-.21.47v5.91l-.91.07v-6c0-.2,0-.43-.19-.47-.38-.05-.5-.07-.5-.19s0-.16.2-.15.74.05,1,.05.6,0,.89-.05.2.05.2.15-.15.15-.45.19"/>
        <path class="cls-6" d="M226.9,60.27c-.21,0-.33.21-.41.41l-2.39,6-.63.07-2.4-6a3.57,3.57,0,0,0-.19-.45c0-.08-.12-.12-.28-.13s-.28,0-.28-.14a.17.17,0,0,1,.19-.18c.28,0,.76.05,1,.07s.34.21.41.42l2,5.43,2-5.15a.28.28,0,0,0-.2-.36c-.46-.07-.52-.14-.52-.2s0-.15.21-.14.58.05.81.05.41,0,.7-.05.2.05.2.14-.07.11-.32.16"/>
        <path class="cls-6" d="M232,66.51c0,.27-.09.3-.33.28-.92,0-1.84-.13-2.76-.07l-.71,0v-6c0-.45,0-.55-.53-.57-.23,0-.27-.05-.27-.15s.06-.16.18-.16A2.13,2.13,0,0,1,228,60a5.74,5.74,0,0,0,.77.06c.86,0,1.71,0,2.56-.06.24,0,.33,0,.34.27s0,.62,0,.86,0,.2-.13.2-.15-.72-.36-.86a2.08,2.08,0,0,0-.69-.13h-1.21c-.18,0-.19,0-.19.11v2.78h1.27c.16,0,.49,0,.53-.21.08-.45.12-.53.22-.53s.15.08.14.2a6.38,6.38,0,0,0,0,.7,6.55,6.55,0,0,0,0,.7c0,.12,0,.2-.14.2s-.14-.08-.22-.52c0-.21-.33-.23-.53-.23h-1.27v2.43c0,.39,0,.43.26.47a4,4,0,0,0,.76.06,6.26,6.26,0,0,0,1.4-.11c.2-.13.15-.89.37-.89s.13,0,.13.2,0,.54,0,.85"/>
        <path class="cls-6" d="M238.66,66.9a1.12,1.12,0,0,1-1-.51l-.42-.61-1.34-2.05a2,2,0,0,1-.5,0h-.26v2.9l-.9.11v-6c0-.44,0-.55-.53-.57-.24,0-.27-.06-.27-.14a.16.16,0,0,1,.18-.18A2.13,2.13,0,0,1,234,60a9.57,9.57,0,0,0,1,.06c.43,0,.87-.05,1.29-.05a1.66,1.66,0,0,1,1.85,1.56,2.2,2.2,0,0,1-1.43,2c1.53,2.28,1.19,1.78,1.78,2.67a2.47,2.47,0,0,0,.41.46c.08.07.16.08.16.18s-.26.08-.43.08m-2.86-6.62h-.34c-.24,0-.32.12-.32.29v2.87c.15,0,.22,0,.41,0,1.49,0,1.66-1,1.66-1.77s-.29-1.42-1.41-1.42"/>
        <path class="cls-6" d="M242,66.84a3.38,3.38,0,0,1-1.75-.51l.18-.42a2.88,2.88,0,0,0,1.57.6c.91,0,1.61-.46,1.61-1.35,0-.48-.42-.75-.79-1A8.69,8.69,0,0,1,241,63.13a1.92,1.92,0,0,1-.7-1.55,1.87,1.87,0,0,1,2.09-1.68,7.45,7.45,0,0,1,1.39.18c0,.41,0,.78,0,1.07,0,.13,0,.2-.12.2s-.15-.07-.22-.51-.41-.58-1.13-.58-1.47.37-1.47,1.21a.81.81,0,0,0,.34.6,4.62,4.62,0,0,0,1.16.67,4.23,4.23,0,0,1,1.27.81,2,2,0,0,1,.51,1.36A2,2,0,0,1,242,66.84"/>
        <path class="cls-6" d="M247.29,60.31c-.21,0-.21.28-.21.47v5.91l-.91.07v-6c0-.2,0-.43-.19-.47-.38-.05-.5-.07-.5-.19s.05-.16.2-.15.74.05,1,.05.6,0,.89-.05.2.05.2.15-.15.15-.45.19"/>
        <path class="cls-6" d="M254.62,60.48l-.38-.07h-2.13v6.28l-.91.09V60.41h-1.68c-.5,0-.57.11-.61.36s0,.52-.18.52h0c-.11,0-.14-.07-.14-.2s0-.55,0-.86.1-.28.34-.27l1,0c1.28,0,2.58,0,3.85,0,.34,0,.72-.12.88-.12a.12.12,0,0,1,.14.12c0,.17-.06.2-.16.46"/>
        <path class="cls-5" d="M258.3,59.47h.34l-1.41-1.4c-.15-.16-.25-.22-.36-.22a.33.33,0,0,0-.34.35c0,.15.07.22.41.44Zm-.47,1.58-1.09,2.63h2.09Zm2.3,5.73L259,64h-2.45l-1.08,2.63-.71.1,2.66-6.11a.37.37,0,0,0,0-.38l-.16-.36h.88a.22.22,0,0,1,.18.12l2.76,6.62Z"/>
      </g>
      <g>
        <path class="cls-6" d="M26.89,123.56v-.81h2.8v1.1h-.2Zm2.8,11.5v1.1h-2.8v-.8l2.6-.3Zm-.9-6.1c0-2.06,0-4.14-.06-6.21h1.92c-.06,2-.06,4.11-.06,6.21v.7c0,2.36,0,4.44.06,6.5H28.73c.06-2,.06-4.1.06-6.2Zm.9-.18h2c2.46,0,3.52-.78,3.52-2.62s-1.06-2.48-3.12-2.48H29.69v-.93h3c2.74,0,4.34,1.37,4.34,3.29,0,1.56-1.08,2.94-3.74,3.26v-.18c3.12.26,4.4,1.66,4.4,3.38s-1.5,3.66-5.28,3.66H29.69v-.92h2.2c2.6,0,3.86-1,3.86-2.74s-1.22-2.8-4-2.8h-2Z"/>
        <path class="cls-6" d="M42.75,130.92a21.82,21.82,0,0,1,3.1-.84v.72a18.13,18.13,0,0,0-2.68.8c-1.8.7-2,1.46-2,2,0,1.06.7,1.48,1.62,1.48.7,0,1.1-.26,2.36-1.16l.4-.3.28.42-.58.58c-1.2,1.2-1.88,1.76-3.1,1.76a2.44,2.44,0,0,1-2.68-2.5C39.47,132.8,40.07,131.9,42.75,130.92Zm2.3,3.4v-4.56c0-2-.56-2.44-1.88-2.44a4.65,4.65,0,0,0-1.8.36l.8-.62-.52,1.72c-.18.58-.48.9-1,.9a.82.82,0,0,1-.9-.8c.38-1.52,1.86-2.46,3.86-2.46s3.06.94,3.06,3.46v4.24c0,.9.28,1.22.74,1.22a1,1,0,0,0,.78-.44l.4.44a1.87,1.87,0,0,1-1.7,1A1.82,1.82,0,0,1,45.05,134.32Z"/>
        <path class="cls-6" d="M51.23,131.26c0,2.52,1.34,3.9,3.22,3.9a3.23,3.23,0,0,0,2.8-1.56l.48.24a3.58,3.58,0,0,1-3.7,2.58c-2.74,0-4.46-1.92-4.46-5a4.68,4.68,0,0,1,4.58-5A3.42,3.42,0,0,1,57.67,129a.83.83,0,0,1-.9.74,1,1,0,0,1-1.06-.9l-.5-1.76.92.74a4.16,4.16,0,0,0-1.92-.5C52.47,127.32,51.23,128.7,51.23,131.26Z"/>
        <path class="cls-6" d="M60.39,123.15l-1.66-.2v-.7l3-.9.28.16-.08,2.84v4.25l.06.26V132c0,1.24,0,3.3.06,4.2H60.33c0-.9.06-3,.06-4.2Zm3,12.31v.7h-4.6v-.7l2.2-.4h.4Zm4.72-5.34V132c0,1.28,0,3.3.06,4.2H66.49c0-.9.06-2.92.06-4.2v-1.68c0-1.86-.48-2.46-1.68-2.46a4.21,4.21,0,0,0-3,1.38h-.42v-.9h1l-.9.36a5.5,5.5,0,0,1,4-2.24C67.33,126.42,68.15,127.48,68.15,130.12Zm-.54,4.94,2,.4v.7H65v-.7l2.2-.4Z"/>
        <path class="cls-6" d="M79.41,130.24a4,4,0,0,1-.14,1.12H71.89v-.84h4.76c1,0,1.18-.46,1.18-1a2.22,2.22,0,0,0-2.22-2.18c-1.28,0-2.76,1.08-2.76,3.94,0,2.54,1.28,3.9,3.28,3.9a3.46,3.46,0,0,0,2.8-1.42l.46.36a4.06,4.06,0,0,1-3.82,2.32c-2.68,0-4.42-1.86-4.42-4.9s2.08-5.1,4.56-5.1A3.57,3.57,0,0,1,79.41,130.24Z"/>
        <path class="cls-6" d="M83.77,121.35l.28.16L84,124.35V132q0,2.1.06,4.2H82.31q.06-2.1.06-4.2v-8.81l-1.66-.2v-.7Zm1.86,14.11v.7H80.71v-.7l2.26-.4h.4Z"/>
        <path class="cls-6" d="M87.05,131.46c0-3.32,2.26-5,4.56-5s4.56,1.72,4.56,5a4.58,4.58,0,0,1-4.56,5C89.31,136.42,87.05,134.78,87.05,131.46Zm7.32,0c0-2.68-1-4.14-2.76-4.14s-2.76,1.46-2.76,4.14,1,4.06,2.76,4.06S94.37,134.14,94.37,131.46Z"/>
        <path class="cls-6" d="M99.45,132V131c0-1.1,0-1.72-.06-2.52l-1.6-.18v-.7l2.72-1.2.3.2.24,2.5V132c0,1.24,0,3.3.06,4.2H99.39C99.43,135.26,99.45,133.2,99.45,132Zm-1.5,3.5,2.2-.4h.4l2.2.4v.7H98Zm2.3-6.2h1.14l-.5.14c.64-1.86,1.86-3,3-3a1.72,1.72,0,0,1,1.42.68c0,.94-.36,1.46-1.16,1.46a1.82,1.82,0,0,1-1.2-.48l-.54-.46,1-.2A4.78,4.78,0,0,0,101,130.6h-.76Z"/>
        <path class="cls-6" d="M114.75,135.42a2.28,2.28,0,0,0,1.36-.56l.46.54a2.86,2.86,0,0,1-2.32,1,2,2,0,0,1-2.24-2.26c0-.48,0-.9,0-1.68v-4.76h-1.68v-.86l2.48-.32-.8.66.6-3.25h1.16l-.16,3.51v6.48C113.63,135,114.07,135.42,114.75,135.42Zm1.64-8.74v1h-3.56v-1Z"/>
        <path class="cls-6" d="M118.79,123.15l-1.66-.2v-.7l3-.9.28.16-.08,2.84v4.25l.06.26V132c0,1.24,0,3.3.06,4.2h-1.72c0-.9.06-3,.06-4.2Zm3,12.31v.7h-4.6v-.7l2.2-.4h.4Zm4.72-5.34V132c0,1.28,0,3.3.06,4.2h-1.72c0-.9.06-2.92.06-4.2v-1.68c0-1.86-.48-2.46-1.68-2.46a4.21,4.21,0,0,0-3,1.38h-.42v-.9h1l-.9.36a5.5,5.5,0,0,1,4-2.24C125.73,126.42,126.55,127.48,126.55,130.12Zm-.54,4.94,2,.4v.7h-4.6v-.7l2.2-.4Z"/>
        <path class="cls-6" d="M137.81,130.24a4,4,0,0,1-.14,1.12h-7.38v-.84h4.76c1,0,1.18-.46,1.18-1a2.22,2.22,0,0,0-2.22-2.18c-1.28,0-2.76,1.08-2.76,3.94,0,2.54,1.28,3.9,3.28,3.9a3.46,3.46,0,0,0,2.8-1.42l.46.36a4.06,4.06,0,0,1-3.82,2.32c-2.68,0-4.42-1.86-4.42-4.9s2.08-5.1,4.56-5.1A3.57,3.57,0,0,1,137.81,130.24Z"/>
        <path class="cls-6" d="M139.85,135.66l-.08-2.18h1.06l.54,2.36-1-.46v-.68a3.8,3.8,0,0,0,2.46.82c1.54,0,2.26-.62,2.26-1.54s-.6-1.3-1.86-1.76l-.92-.34c-1.46-.54-2.42-1.32-2.42-2.68s1.22-2.78,3.44-2.78a5.1,5.1,0,0,1,2.78.82l-.08,2h-1l-.4-2,.72.32v.52a3.27,3.27,0,0,0-2-.76c-1.24,0-1.88.54-1.88,1.38s.5,1.24,1.86,1.74l.6.22c2,.74,2.76,1.68,2.76,2.92,0,1.48-1.3,2.84-3.86,2.84A6.09,6.09,0,0,1,139.85,135.66Z"/>
        <path class="cls-6" d="M149.69,136.16c0-.9.06-3,.06-4.2V131c0-1.1,0-1.72-.06-2.52l-1.64-.18v-.7l3-1.2.3.2-.06,2.7V132c0,1.24,0,3.3.06,4.2Zm3.08-.7v.7h-4.6v-.7l2.2-.4h.4Zm-3.58-12.57a1.32,1.32,0,0,1,2.64,0,1.32,1.32,0,0,1-2.64,0Z"/>
        <path class="cls-6" d="M154.45,135.66l-.08-2.18h1.06l.54,2.36-1-.46v-.68a3.8,3.8,0,0,0,2.46.82c1.54,0,2.26-.62,2.26-1.54s-.6-1.3-1.86-1.76l-.92-.34c-1.46-.54-2.42-1.32-2.42-2.68s1.22-2.78,3.44-2.78a5.1,5.1,0,0,1,2.78.82l-.08,2h-1l-.4-2,.72.32v.52a3.27,3.27,0,0,0-2-.76c-1.24,0-1.88.54-1.88,1.38s.5,1.24,1.86,1.74l.6.22c2,.74,2.76,1.68,2.76,2.92,0,1.48-1.3,2.84-3.86,2.84A6.09,6.09,0,0,1,154.45,135.66Z"/>
        <path class="cls-6" d="M163.67,127.74a1.4,1.4,0,1,1,1.4,1.4A1.41,1.41,0,0,1,163.67,127.74Zm0,7.28a1.4,1.4,0,1,1,1.4,1.4A1.41,1.41,0,0,1,163.67,135Z"/>
        <path class="cls-6" d="M26.72,163.85l2.64-.36h.58l2.36.36V165H26.72ZM26.81,149H30.1v1.47h-.33l-3-.36ZM29,149h1.17l.2,7.67V165H29Zm.08,0h3l5.19,13.2H36.4L41.31,149h1.41l-5.94,16H35.31Zm10.6,14.84,3-.36h.76l3.28.36V165h-7Zm1.95-6.11,0-8.73h3c-.07,2.44-.07,4.94-.07,7.44v1.07c0,2.48,0,5,.07,7.44h-3.1C41.58,162.52,41.58,160,41.58,157.74ZM43.05,149h3.54v1.11l-3.24.36h-.3Z"/>
        <path class="cls-6" d="M47.93,159.22a5.76,5.76,0,1,1,11.5,0c0,3.88-2.59,6.07-5.75,6.07S47.93,163.08,47.93,159.22Zm8.5,0c0-3.3-1-4.95-2.75-4.95s-2.74,1.65-2.74,4.95,1,4.89,2.74,4.89S56.43,162.56,56.43,159.25Z"/>
        <path class="cls-6" d="M62.75,165c0-1.08.07-3.56.07-5v-1.25c0-1.32,0-1.95-.07-2.91L61,155.54v-.89l3.92-1.5.38.24.26,2.73v3.8c0,1.48,0,4,.07,5Zm4.33-1v1H61.2v-1l2.46-.48h1.08Zm5.77-6.54v2.47c0,1.53,0,4,.07,5H70c0-1.08.07-3.51.07-5v-2.24c0-1.93-.49-2.57-1.72-2.57a4.86,4.86,0,0,0-3.29,1.7h-.64v-1.29h1.4l-1,.54c1.37-1.92,3-2.91,4.76-2.91C71.69,153.15,72.85,154.46,72.85,157.45ZM72,163.51l2.37.48v1H68.49v-1l2.44-.48Z"/>
        <path class="cls-6" d="M81,163.75a2.49,2.49,0,0,0,1.49-.61l.57.62a3.47,3.47,0,0,1-3.11,1.53c-1.89,0-3-.91-3-3,0-.69,0-1.25,0-2.19v-5.2H75.12V153.7l2.91-.38-1.14.87,1.07-4h1.86l-.13,4.25V162C79.69,163.23,80.21,163.75,81,163.75Zm1.67-10.27v1.43H78.32v-1.43Z"/>
        <path class="cls-6" d="M94.34,157.94a4.92,4.92,0,0,1-.15,1.33H85.1v-1.13h5.17c1.15,0,1.43-.5,1.43-1.34a2.32,2.32,0,0,0-2.2-2.51c-1.3,0-2.69,1.21-2.69,4.66,0,3,1.5,4.48,3.63,4.48a4,4,0,0,0,3.16-1.51l.67.58a5,5,0,0,1-4.78,2.79c-3.34,0-5.6-2.25-5.6-6a5.8,5.8,0,0,1,5.78-6.14A4.47,4.47,0,0,1,94.34,157.94Z"/>
        <path class="cls-6" d="M96.26,158h5.83v1.81H96.26Z"/>
        <path class="cls-6" d="M116.76,162.62v1.28l-1.54.35.69-3.65h1.62l-.09,3.57a10.25,10.25,0,0,1-4.94,1.19c-4.74,0-8.21-3.16-8.21-8.37a8,8,0,0,1,8.28-8.37,9.41,9.41,0,0,1,4.66,1.16l.09,3.59H115.7l-.7-3.66,1.54.35v1.41a5.14,5.14,0,0,0-3.56-1.58c-2.94,0-5.4,2.32-5.4,7.1s2.27,7.09,5.25,7.09A6.28,6.28,0,0,0,116.76,162.62Z"/>
        <path class="cls-6" d="M123.56,158.49a38.78,38.78,0,0,1,3.77-1v.93a22.38,22.38,0,0,0-3.18,1c-1.69.67-2.13,1.54-2.13,2.43a1.58,1.58,0,0,0,1.72,1.76c.67,0,1.1-.25,2.29-1.1l.69-.53.3.44-.84.87c-1.31,1.35-2.1,2-3.69,2a2.91,2.91,0,0,1-3.18-3C119.31,160.76,120.13,159.62,123.56,158.49Zm2.35,4.37v-5.71c0-2.26-.56-2.86-2.12-2.86a6.7,6.7,0,0,0-2.2.4l1.27-.83-.43,1.89c-.15,1.09-.69,1.59-1.46,1.59a1.21,1.21,0,0,1-1.32-1.07c.31-1.9,2.16-3.12,5-3.12s3.94,1.2,3.94,4.31v5.22c0,.81.28,1.12.74,1.12a1,1,0,0,0,.84-.52l.55.48a2.43,2.43,0,0,1-2.41,1.48A2.3,2.3,0,0,1,125.91,162.86Z"/>
        <path class="cls-6" d="M133.19,159.92v-1.25c0-1.32,0-1.95-.07-2.91l-1.72-.22v-.89l3.91-1.5.39.24.25,3v3.55c0,1.48,0,4,.08,5h-2.91C133.17,163.88,133.19,161.4,133.19,159.92Zm-1.6,4.07,2.49-.48h1.38L138,164v1h-6.36Zm3-7.28h1.56l-.47.38c.61-2.55,2.17-3.94,3.59-3.94a1.87,1.87,0,0,1,1.87,1.23c0,1.19-.57,1.85-1.53,1.85a2.11,2.11,0,0,1-1.62-.82l-.67-.71,1.08,0a5.72,5.72,0,0,0-2.52,3.6l-1.29-.07Z"/>
        <path class="cls-6" d="M145.73,147.34l.36.22-.09,3.38v9c0,1.68,0,3.36.07,5h-2.91c.05-1.68.07-3.36.07-5V149.58l-1.77-.24v-.92Zm2,16.65v1h-6.19v-1l2.53-.48h1.07Z"/>
        <path class="cls-6" d="M149.21,159.22a5.76,5.76,0,1,1,11.5,0c0,3.88-2.59,6.07-5.75,6.07S149.21,163.08,149.21,159.22Zm8.5,0c0-3.3-1-4.95-2.75-4.95s-2.74,1.65-2.74,4.95.95,4.89,2.74,4.89S157.71,162.56,157.71,159.25Z"/>
        <path class="cls-6" d="M172.23,158.49a38.78,38.78,0,0,1,3.77-1v.93a22.78,22.78,0,0,0-3.18,1c-1.68.67-2.13,1.54-2.13,2.43a1.58,1.58,0,0,0,1.72,1.76c.67,0,1.11-.25,2.29-1.1l.69-.53.3.44-.83.87c-1.32,1.35-2.11,2-3.69,2a2.91,2.91,0,0,1-3.19-3C168,160.76,168.8,159.62,172.23,158.49Zm2.35,4.37v-5.71c0-2.26-.56-2.86-2.12-2.86a6.7,6.7,0,0,0-2.2.4l1.27-.83-.43,1.89c-.14,1.09-.69,1.59-1.46,1.59a1.21,1.21,0,0,1-1.32-1.07c.31-1.9,2.16-3.12,5-3.12s4,1.2,4,4.31v5.22c0,.81.27,1.12.73,1.12a1.06,1.06,0,0,0,.85-.52l.54.48a2.43,2.43,0,0,1-2.41,1.48A2.3,2.3,0,0,1,174.58,162.86Z"/>
        <path class="cls-6" d="M184.3,147.34l.36.22-.09,3.38v9c0,1.68,0,3.36.07,5h-2.91c.05-1.68.07-3.36.07-5V149.58l-1.77-.24v-.92Zm2,16.65v1h-6.2v-1l2.53-.48h1.07Z"/>
        <path class="cls-6" d="M196.41,167.16c0-.91-.58-1.67-2.14-1.67h-2.69a6.41,6.41,0,0,1-1.81-.2v-.11c-1.22-.32-1.79-1-1.79-2s.7-2,2.27-3.33l.57.38A2.5,2.5,0,0,0,190,162c0,.61.31,1,1.39,1h3c3.05,0,4.3,1.26,4.3,3.27,0,2.23-2.17,4.28-6.39,4.28-3.68,0-5-1.26-5-2.87,0-1.18.8-2.09,2.95-3l.22.18a3.13,3.13,0,0,0-1.06,2.27c0,1.52,1.13,2.14,3.14,2.14C195.07,169.35,196.41,168.38,196.41,167.16Zm-4-14c2.88,0,4.6,1.43,4.6,3.91S195.3,161,192.43,161s-4.61-1.44-4.61-3.89S189.57,153.15,192.45,153.15Zm-2.08,3.91c0,1.73.7,2.85,2,2.85s2.12-1.17,2.12-2.92-.73-2.81-2-2.81S190.37,155.33,190.37,157.06Zm8.14-3.94.37.24V155h-3.49v-.71Z"/>
        <path class="cls-6" d="M199.9,159.22a5.76,5.76,0,1,1,11.5,0c0,3.88-2.59,6.07-5.75,6.07S199.9,163.08,199.9,159.22Zm8.5,0c0-3.3-1-4.95-2.75-4.95s-2.74,1.65-2.74,4.95,1,4.89,2.74,4.89S208.4,162.56,208.4,159.25Z"/>
        <path class="cls-6" d="M214.79,159.92v-1.25c0-1.32,0-1.95-.07-2.91l-1.72-.22v-.89l3.91-1.5.39.24.25,3v3.55c0,1.48,0,4,.08,5h-2.91C214.77,163.88,214.79,161.4,214.79,159.92Zm-1.6,4.07,2.49-.48h1.38l2.49.48v1h-6.36Zm3-7.28h1.56l-.47.38c.61-2.55,2.17-3.94,3.59-3.94a1.87,1.87,0,0,1,1.87,1.23c0,1.19-.57,1.85-1.53,1.85a2.11,2.11,0,0,1-1.62-.82l-.67-.71,1.08,0a5.72,5.72,0,0,0-2.52,3.6l-1.29-.07Z"/>
        <path class="cls-6" d="M225.24,165c0-1.08.08-3.56.08-5v-1.14c0-1.32,0-2.06-.08-3l-1.75-.22v-.89l4.25-1.5.38.24-.07,3.35v3.18c0,1.48,0,4,.07,5Zm4.33-1v1h-5.9v-1l2.46-.48h1.07Zm-4.7-14.83a1.78,1.78,0,1,1,1.78,1.69A1.69,1.69,0,0,1,224.87,149.16Z"/>
        <path class="cls-6" d="M236.33,163.75a2.49,2.49,0,0,0,1.49-.61l.57.62a3.46,3.46,0,0,1-3.11,1.53c-1.89,0-3-.91-3-3,0-.69,0-1.25,0-2.19v-5.2h-1.81V153.7l2.91-.38-1.14.87,1.07-4h1.86l-.13,4.25V162C235,163.23,235.56,163.75,236.33,163.75ZM238,153.48v1.43h-4.33v-1.43Z"/>
        <path class="cls-6" d="M240.7,149.58l-1.77-.24v-.92l4.2-1.08.36.22-.1,3.38v4.94l.07.31v3.73c0,1.48,0,4,.07,5h-2.91c0-1.08.08-3.56.08-5ZM244.94,164v1h-5.88v-1l2.46-.48h1.08Zm5.85-6.54v2.47c0,1.53,0,4,.07,5H248c0-1.08.07-3.51.07-5v-2.24c0-1.93-.46-2.57-1.7-2.57a4.7,4.7,0,0,0-3.26,1.78h-.67v-1.37h1.38l-1,.54a6,6,0,0,1,4.77-2.91C249.62,153.15,250.79,154.46,250.79,157.45Zm-.85,6.06,2.37.48v1h-5.88v-1l2.44-.48Z"/>
        <path class="cls-6" d="M255.35,165c.05-1.08.07-3.56.07-5v-1.25c0-1.32,0-1.95-.07-2.91l-1.72-.22v-.89l3.91-1.5.39.24.26,2.73v3.8c0,1.48,0,4,.07,5Zm4.33-1v1H253.8v-1l2.46-.48h1.08Zm5.68-6.54v2.47c0,1.53,0,4,.07,5h-2.88c.05-1.08.07-3.51.07-5v-2.15c0-2-.47-2.66-1.74-2.66a4.75,4.75,0,0,0-3.19,1.7H257v-1.29h1.35l-.9.54c1.28-1.79,2.92-2.91,4.66-2.91C264.29,153.15,265.36,154.46,265.36,157.45Zm-.83,6.06,2.32.48v1H261v-1l2.41-.48Zm8-6.16v2.57c0,1.53,0,4,.07,5H269.7c.05-1.08.08-3.51.08-5v-2.18c0-2.06-.52-2.63-1.74-2.63a4.61,4.61,0,0,0-3.21,1.7h-.7v-1.18h1.48l-1.05.43c1.44-2.09,3-2.91,4.7-2.91C271.4,153.15,272.51,154.43,272.51,157.35Zm-.82,6.16L274,164v1h-5.81v-1l2.36-.48Z"/>
        <path class="cls-6" d="M28.5,183.71H26.69V182.5l2.78-.36-1,.5c.24-2.76.82-4.17,1.86-5.22A5,5,0,0,1,34,175.9c1.22,0,2.28.39,2.55,1.47a1.41,1.41,0,0,1-1.57,1.3,2.41,2.41,0,0,1-1.9-1.14l-.92-.85,2.17-.51.42.72a1.8,1.8,0,0,0-.88-.31A2.4,2.4,0,0,0,32,177.87c-.62,1-.87,2.67-.68,5.48v5.37c0,1.68,0,3.36.07,5H28.43c.05-1.68.07-3.36.07-5Zm4.84,9.08v1H26.79v-1l2.55-.48H30.7Zm.89-10.51v1.43H29.89v-1.43Z"/>
        <path class="cls-6" d="M35.19,188a5.76,5.76,0,1,1,11.5,0c0,3.88-2.59,6.07-5.75,6.07S35.19,191.88,35.19,188Zm8.49,0c0-3.3-1-5-2.74-5s-2.74,1.65-2.74,5,.95,4.88,2.74,4.88S43.68,191.36,43.68,188.05Z"/>
        <path class="cls-6" d="M50.08,188.72v-1.25c0-1.32,0-1.95-.07-2.91l-1.72-.22v-.89L52.2,182l.39.24.25,3v3.55c0,1.48,0,4,.08,5H50C50.05,192.68,50.08,190.2,50.08,188.72Zm-1.6,4.07,2.48-.48h1.39l2.49.48v1H48.48Zm3-7.28h1.56l-.48.38c.62-2.55,2.18-3.94,3.6-3.94a1.87,1.87,0,0,1,1.87,1.23c0,1.19-.57,1.85-1.53,1.85a2.11,2.11,0,0,1-1.62-.82l-.67-.71,1.08,0a5.68,5.68,0,0,0-2.52,3.6l-1.29-.07Z"/>
        <path class="cls-6" d="M78.09,192.75a10.66,10.66,0,0,1-5.34,1.41c-4.87,0-8.18-3.38-8.18-8.39s3.23-8.35,8.36-8.35a9.55,9.55,0,0,1,4.74,1.12l.1,3.6H76.13l-.71-3.67,1.57.42v1.32a5.55,5.55,0,0,0-3.75-1.53c-3,0-5.38,2.42-5.38,7.09s2.2,7.1,5.46,7.1a6.67,6.67,0,0,0,3.29-.92l-1.41,1.31v-1.58c0-1.88,0-3.73-.07-5.62h3c0,1.86-.08,3.73-.08,5.65Zm-5.3-5.58v-1.11h6.72v1.11l-2.72.3h-1Z"/>
        <path class="cls-6" d="M82.33,188.72v-1.25c0-1.32,0-1.95-.07-2.91l-1.72-.22v-.89l3.92-1.5.38.24.26,3v3.55c0,1.48,0,4,.07,5H82.26C82.31,192.68,82.33,190.2,82.33,188.72Zm-1.6,4.07,2.49-.48h1.39l2.48.48v1H80.73Zm3-7.28h1.56l-.48.38c.61-2.55,2.17-3.94,3.59-3.94a1.88,1.88,0,0,1,1.88,1.23c0,1.19-.57,1.85-1.53,1.85a2.15,2.15,0,0,1-1.63-.82l-.67-.71,1.09,0a5.64,5.64,0,0,0-2.52,3.6l-1.29-.07Z"/>
        <path class="cls-6" d="M95.24,187.29a38.78,38.78,0,0,1,3.77-1v.93a22.38,22.38,0,0,0-3.18,1c-1.69.67-2.13,1.54-2.13,2.43a1.58,1.58,0,0,0,1.72,1.76c.67,0,1.1-.26,2.29-1.1l.69-.53.3.44-.84.87c-1.31,1.35-2.1,2.05-3.69,2.05a2.91,2.91,0,0,1-3.18-3C91,189.56,91.81,188.42,95.24,187.29Zm2.35,4.37V186c0-2.26-.56-2.86-2.12-2.86a6.7,6.7,0,0,0-2.2.4l1.27-.83-.43,1.89c-.15,1.09-.69,1.59-1.46,1.59a1.21,1.21,0,0,1-1.32-1.07c.31-1.9,2.16-3.12,5-3.12s3.94,1.2,3.94,4.31v5.22c0,.81.28,1.12.74,1.12a1,1,0,0,0,.84-.52l.55.48A2.43,2.43,0,0,1,100,194,2.3,2.3,0,0,1,97.59,191.66Z"/>
        <path class="cls-6" d="M104.51,187.47c0-1.32,0-1.95-.07-2.91l-1.72-.22v-.89l3.9-1.5.37.23.18,2,.1.19v7.51l-.07.21v2.1c0,1.61,0,3.35.07,5.23h-2.83c0-1.88.07-3.58.07-5.19Zm4.66,10.94v1h-6.39v-1l2.52-.48h1.31Zm.49-14.81c-1.06,0-2.21.83-3.53,2.14l-.21-.42c1.38-2.32,3-3.37,4.8-3.37,2.58,0,4.63,2.19,4.63,6s-2.26,6.12-5,6.12c-1.77,0-3.16-.92-4.34-3.4l.22-.41c1.13,1.47,2.08,2.18,3.27,2.18,1.65,0,2.93-1.36,2.93-4.35S111.27,183.6,109.66,183.6Z"/>
        <path class="cls-6" d="M118.42,178.38l-1.77-.24v-.92l4.2-1.08.36.22-.1,3.38v4.94l.07.31v3.73c0,1.48,0,4,.07,5h-2.9c0-1.08.07-3.56.07-5Zm4.24,14.41v1h-5.88v-1l2.46-.48h1.08Zm5.85-6.54v2.47c0,1.53,0,4,.07,5h-2.9c0-1.08.07-3.51.07-5v-2.24c0-1.93-.46-2.57-1.7-2.57-1.06,0-2.06.57-3.26,1.78h-.67v-1.37h1.38l-1,.54a6,6,0,0,1,4.77-2.91C127.34,182,128.51,183.26,128.51,186.25Zm-.85,6.06,2.37.48v1h-5.88v-1l2.44-.48Z"/>
        <path class="cls-6" d="M149.54,191.42v1.28l-1.54.35.69-3.65h1.63l-.1,3.57a10.21,10.21,0,0,1-4.93,1.19c-4.75,0-8.21-3.16-8.21-8.37a8,8,0,0,1,8.27-8.37,9.38,9.38,0,0,1,4.66,1.16l.1,3.59h-1.63l-.7-3.66,1.54.35v1.41a5.14,5.14,0,0,0-3.56-1.59c-2.94,0-5.4,2.33-5.4,7.11s2.27,7.09,5.25,7.09A6.26,6.26,0,0,0,149.54,191.42Z"/>
        <path class="cls-6" d="M152.07,188a5.76,5.76,0,1,1,11.5,0c0,3.88-2.59,6.07-5.75,6.07S152.07,191.88,152.07,188Zm8.49,0c0-3.3-1-5-2.74-5s-2.75,1.65-2.75,5,1,4.88,2.75,4.88S160.56,191.36,160.56,188.05Z"/>
        <path class="cls-6" d="M169.16,176.14l.36.22-.1,3.38v9c0,1.68,0,3.36.07,5h-2.91c0-1.68.08-3.36.08-5V178.38l-1.77-.24v-.92Zm2,16.65v1h-6.2v-1l2.53-.48h1.07Z"/>
        <path class="cls-6" d="M172.64,188a5.75,5.75,0,1,1,11.49,0c0,3.88-2.59,6.07-5.74,6.07S172.64,191.88,172.64,188Zm8.49,0c0-3.3-1-5-2.74-5s-2.75,1.65-2.75,5,1,4.88,2.75,4.88S181.13,191.36,181.13,188.05Z"/>
        <path class="cls-6" d="M187.53,188.72v-1.25c0-1.32,0-1.95-.08-2.91l-1.72-.22v-.89l3.92-1.5.38.24.26,3v3.55c0,1.48,0,4,.07,5h-2.91C187.5,192.68,187.53,190.2,187.53,188.72Zm-1.61,4.07,2.49-.48h1.39l2.48.48v1h-6.36Zm3.05-7.28h1.56l-.48.38c.62-2.55,2.17-3.94,3.6-3.94a1.87,1.87,0,0,1,1.87,1.23c0,1.19-.57,1.85-1.53,1.85a2.15,2.15,0,0,1-1.63-.82l-.67-.71,1.09,0a5.68,5.68,0,0,0-2.52,3.6l-1.29-.07Z"/>
        <path class="cls-6" d="M198,193.76c.05-1.08.07-3.56.07-5v-1.14c0-1.32,0-2.06-.07-3l-1.76-.22v-.89l4.25-1.5.38.24-.07,3.35v3.18c0,1.48,0,4,.07,5Zm4.32-1v1h-5.89v-1l2.45-.48h1.07ZM197.6,178a1.79,1.79,0,1,1,1.78,1.69A1.69,1.69,0,0,1,197.6,178Z"/>
        <path class="cls-6" d="M205.36,193.76c0-1.08.07-3.56.07-5v-1.25c0-1.32,0-1.95-.07-2.91l-1.72-.22v-.89l3.91-1.5.39.24.25,2.73v3.8c0,1.48,0,4,.08,5Zm4.33-1v1h-5.88v-1l2.46-.48h1.08Zm5.77-6.54v2.47c0,1.53,0,4,.07,5h-2.91c0-1.08.08-3.51.08-5v-2.24c0-1.93-.5-2.57-1.72-2.57a4.86,4.86,0,0,0-3.29,1.7H207v-1.29h1.41l-1,.54c1.37-1.92,3.05-2.91,4.76-2.91C214.3,182,215.46,183.26,215.46,186.25Zm-.86,6.06,2.38.48v1H211.1v-1l2.43-.48Z"/>
        <path class="cls-6" d="M227.39,196c0-.91-.58-1.67-2.13-1.67h-2.7a6.29,6.29,0,0,1-1.8-.2V194c-1.23-.32-1.8-1-1.8-2s.7-2,2.27-3.33l.58.38a2.5,2.5,0,0,0-.81,1.77c0,.61.31,1,1.39,1h3c3,0,4.29,1.26,4.29,3.27,0,2.23-2.17,4.28-6.38,4.28-3.69,0-5.05-1.26-5.05-2.87,0-1.18.8-2.09,3-2.95l.22.18a3.13,3.13,0,0,0-1.06,2.27c0,1.52,1.13,2.14,3.14,2.14C226.06,198.15,227.39,197.18,227.39,196Zm-4-14c2.88,0,4.61,1.43,4.61,3.91s-1.76,3.89-4.62,3.89-4.62-1.44-4.62-3.89S220.56,182,223.43,182Zm-2.07,3.91c0,1.73.69,2.85,2,2.85s2.13-1.17,2.13-2.92-.74-2.81-2.05-2.81S221.36,184.13,221.36,185.86Zm8.13-3.94.37.24v1.65h-3.49v-.71Z"/>
      </g>
    </g>
  </g>
</svg>
